<?xml version="1.0" encoding="utf-8"?>
<!-- Generator: Adobe Illustrator 26.5.0, SVG Export Plug-In . SVG Version: 6.00 Build 0)  -->
<svg version="1.1" id="Capa_1" xmlns="http://www.w3.org/2000/svg" xmlns:xlink="http://www.w3.org/1999/xlink" x="0px" y="0px"
	 viewBox="0 0 451 480" style="enable-background:new 0 0 451 480;" xml:space="preserve">
<style type="text/css">
	.st0{fill:#FFFFFF;}
	.st1{fill:#E85984;}
	.st2{fill:#E51050;}
	.st3{fill:#770829;}
</style>
<path class="st0" d="M214,88.42c19.22,0,38.45-0.06,57.68,0.03c17.27,57.58,34.74,115.1,52.03,172.68
	c-14.67-0.02-29.34,0.05-44.01-0.03c-3.36-12.08-6.79-24.15-10.16-36.23c-0.28-0.51-0.12-1.72-1.04-1.44
	c-17.07-0.03-34.14-0.01-51.21-0.01c-3.21,12.55-6.47,25.09-9.58,37.67c-14.36,0.09-28.72,0.06-43.08,0.02
	C181.1,203.54,197.57,145.98,214,88.42 M242.73,116.92c-0.47,1.23-0.85,2.5-0.92,3.82c-5.56,23.51-11.14,47.03-16.59,70.57
	c11.82,0.02,23.64-0.01,35.46,0.01c-5.55-23.31-11.29-46.58-16.85-69.89C243.57,119.9,243.19,118.4,242.73,116.92"/>
<path class="st0" d="M164.24,365.49c5.33-4.77,12.76-6.43,19.76-6.25c6.45,0.09,13.34,1.55,18.19,6.08
	c4.11,3.74,5.94,9.37,6.08,14.81c-5.03,0.02-10.06,0.01-15.09,0c-0.19-3.24-1.6-6.76-4.76-8.13c-4.13-1.77-9.64-1.33-12.71,2.23
	c-1.93,2.29-2.55,5.37-2.56,8.29c-0.04,7.03-0.01,14.06-0.02,21.09c-0.01,2.9,0.25,5.96,1.86,8.46c1.55,2.53,4.48,3.96,7.39,4.11
	c2.94,0.18,6.22-0.31,8.36-2.52c1.85-1.92,2.34-4.68,2.55-7.24c5.09,0.02,10.19-0.02,15.28,0.02c-0.39,5.64-2.09,11.54-6.35,15.49
	c-4.99,4.7-12.13,6.02-18.76,6.07c-7.08,0.18-14.55-1.81-19.72-6.87c-4.72-4.5-7-11.08-7.1-17.51c-0.03-6.66-0.02-13.33-0.01-19.99
	C156.72,376.93,159.09,369.99,164.24,365.49"/>
<path class="st0" d="M231.23,360.88c7.3-0.02,14.59-0.03,21.9,0c6.53,21.84,13.15,43.66,19.7,65.5c-5.57,0.01-11.14,0.01-16.7,0
	c-1.32-4.78-2.68-9.55-4.01-14.33c-6.53,0-13.07-0.02-19.6,0.01c-1.23,4.77-2.42,9.56-3.65,14.33c-5.44,0-10.87,0.01-16.3-0.01
	C218.76,404.53,225.05,382.72,231.23,360.88 M242.16,371.68c-2.28,9.38-4.42,18.79-6.65,28.18c4.47,0.01,8.95,0.02,13.43-0.01
	C246.68,390.46,244.37,381.08,242.16,371.68"/>
<path class="st0" d="M280.81,360.87c5.47-0.02,10.93-0.01,16.4-0.01c6.14,0.05,12.45-0.43,18.37,1.54
	c6.48,1.9,12.06,6.78,14.44,13.15c2.86,7.03,1.77,14.74,1.99,22.12c0.24,7.31-1.5,15.11-6.72,20.51c-5.5,5.85-13.8,8.01-21.59,8.17
	c-7.63,0.03-15.26,0.02-22.89,0.01C280.81,404.54,280.82,382.7,280.81,360.87 M297.18,372.62c0.01,13.99-0.01,27.99,0.01,41.98
	c3.85-0.09,7.88,0.42,11.53-1.08c3.01-1.15,5.12-3.94,5.98-6.98c1.49-5.34,0.73-10.96,0.92-16.43c0.01-5.05,0.3-10.98-3.63-14.81
	C307.98,371.61,302.14,372.85,297.18,372.62"/>
<path class="st1" d="M67.92,28.11c5.52-3.26,10.94-6.73,16.54-9.85c0.02,103.98-0.02,207.96,0.02,311.94
	c-9.02,5.42-18.01,10.89-27.05,16.28c-1.31,0.74-2.54,1.61-3.79,2.45c-12.35,7.07-24.38,14.7-36.66,21.9
	c-0.11-103.98,0-207.97-0.05-311.94C33.87,48.54,50.94,38.4,67.92,28.11"/>
<path class="st1" d="M242.73,116.92c0.45,1.48,0.84,2.98,1.1,4.51c-0.41-0.6-0.82-1.18-1.25-1.76c-0.2,0.27-0.58,0.8-0.77,1.07
	C241.88,119.42,242.27,118.15,242.73,116.92"/>
<path class="st2" d="M84.46,18.26c43.47,0.18,86.95,0.03,130.42,0.08h164.64c2.91,0.02,5.9-0.18,8.71,0.75
	c9.14,2.61,16,11.52,16.06,21.05c0.05,15.79,0.02,31.57,0.02,47.36c0,80.29-0.03,160.58,0.01,240.87c-0.1,0.63,0.27,2.08-0.88,1.83
	c-106.32,0.02-212.64,0-318.96,0.01C84.44,226.22,84.48,122.24,84.46,18.26 M214,88.42c-16.42,57.57-32.89,115.12-49.37,172.68
	c14.36,0.04,28.72,0.08,43.08-0.01c3.11-12.58,6.37-25.12,9.58-37.67c17.07,0,34.14-0.02,51.21,0.01c0.92-0.28,0.76,0.93,1.04,1.44
	c3.37,12.08,6.8,24.14,10.16,36.23c14.67,0.08,29.34,0.02,44.01,0.03c-17.29-57.58-34.75-115.1-52.03-172.68
	C252.45,88.36,233.22,88.41,214,88.42"/>
<path class="st2" d="M242.59,119.67c0.42,0.57,0.84,1.16,1.25,1.76c5.56,23.31,11.3,46.58,16.85,69.89
	c-11.82-0.02-23.64,0.02-35.46-0.01c5.45-23.54,11.02-47.06,16.59-70.57C242,120.47,242.39,119.94,242.59,119.67"/>
<path class="st3" d="M404.31,87.5c10.25,0,20.49-0.02,30.74,0.01c0.02,124.75,0.02,249.49,0,374.23
	c-118.35-0.01-236.71,0-355.07-0.01c-3.79-0.07-7.74,0.37-11.34-1.09c-8.6-2.97-14.86-11.57-14.94-20.67
	c-0.08-30.34,0.03-60.69-0.05-91.03c1.25-0.84,2.48-1.72,3.79-2.45c9.04-5.39,18.03-10.86,27.05-16.28
	c106.32-0.01,212.64,0.01,318.96-0.01c1.15,0.25,0.77-1.2,0.88-1.83C404.28,248.07,404.3,167.78,404.31,87.5 M164.24,365.49
	c-5.14,4.5-7.51,11.43-7.6,18.13c-0.01,6.66-0.02,13.33,0,19.99c0.1,6.43,2.37,13.01,7.1,17.51c5.17,5.05,12.64,7.05,19.72,6.87
	c6.63-0.04,13.77-1.37,18.76-6.07c4.26-3.95,5.97-9.85,6.35-15.49c-5.09-0.04-10.19-0.01-15.28-0.02c-0.21,2.56-0.7,5.32-2.55,7.24
	c-2.14,2.21-5.42,2.7-8.36,2.52c-2.91-0.15-5.84-1.58-7.39-4.11c-1.61-2.5-1.87-5.56-1.86-8.46c0.02-7.03-0.02-14.06,0.02-21.09
	c0.02-2.92,0.63-6.01,2.56-8.29c3.07-3.55,8.58-3.99,12.71-2.23c3.16,1.38,4.56,4.89,4.76,8.13c5.03,0.01,10.06,0.02,15.09,0
	c-0.15-5.44-1.98-11.07-6.08-14.81c-4.85-4.53-11.74-5.99-18.19-6.08C177,359.06,169.57,360.72,164.24,365.49 M231.23,360.88
	c-6.19,21.84-12.48,43.65-18.67,65.49c5.43,0.02,10.87,0.01,16.31,0.01c1.23-4.77,2.42-9.56,3.65-14.33
	c6.53-0.03,13.07-0.01,19.61-0.01c1.33,4.78,2.69,9.55,4.01,14.33c5.56,0.01,11.13,0.01,16.7,0c-6.55-21.84-13.17-43.65-19.7-65.5
	C245.83,360.84,238.53,360.85,231.23,360.88 M280.81,360.87c0.01,21.83,0.01,43.67,0,65.5c7.63,0.01,15.26,0.02,22.89-0.01
	c7.79-0.16,16.09-2.32,21.59-8.17c5.22-5.4,6.96-13.21,6.72-20.51c-0.22-7.38,0.87-15.09-1.99-22.12
	c-2.38-6.37-7.96-11.24-14.44-13.15c-5.93-1.97-12.24-1.49-18.37-1.54C291.74,360.87,286.27,360.85,280.81,360.87"/>
<path class="st3" d="M242.16,371.68c2.21,9.4,4.52,18.78,6.78,28.17c-4.47,0.02-8.95,0.01-13.43,0.01
	C237.74,390.47,239.88,381.05,242.16,371.68"/>
<path class="st3" d="M297.18,372.62c4.96,0.23,10.8-1.01,14.81,2.68c3.93,3.82,3.64,9.76,3.63,14.81
	c-0.19,5.47,0.57,11.09-0.92,16.43c-0.86,3.04-2.97,5.83-5.98,6.98c-3.65,1.5-7.69,1-11.53,1.08
	C297.17,400.61,297.19,386.61,297.18,372.62"/>
</svg>
