<svg id="Capa_1" data-name="Capa 1" xmlns="http://www.w3.org/2000/svg" viewBox="0 0 481.89 566.93"><defs><style>.cls-1{fill:#df000a;}.cls-2{fill:#fe7110;}.cls-3{fill:#020203;}</style></defs><title>Logo ALIA</title><path class="cls-1" d="M254.25,93.14a77.09,77.09,0,0,0-26.74-4.73,77.58,77.58,0,0,0-44.92,14.32A30.55,30.55,0,0,1,175.52,89c-.27-1.26-2.91-14.32,4.11-22.72,9-10.75,23.65-1.71,43.13-14.37,6.3-4.1,9.31-8,11-12a24.42,24.42,0,0,0,.15-17.34c-4.35-11.27-16.54-15.12-19.12-15.86C195.22,1.18,173,17.22,162.16,33.1,152.29,47.59,151.4,62.67,151,70.39a87.41,87.41,0,0,0,5.5,35.83,77,77,0,0,0-30.8-6.37c-38.23,0-69.89,27.55-75.59,63.54a123,123,0,0,0-.89,13.25c0,.59,0,1.18,0,1.78,0,62.56,46.26,114.51,107,124.57,1.92-25.62,6.87-43.37,8-47.06,10.63-39.56,29.07-74.16,54.81-102.86,3.12-3.48,27.56-30,60.23-44.92A76.51,76.51,0,0,0,254.25,93.14ZM99.85,155.7c-10.81,18.62-.56,37.43-10.52,42.8-3.88,2.09-8.74,1-11.67-.62C66,191.38,67.51,166.28,74,150c6-14.94,17-24.69,26.15-27.42,2.07-.62,6.06-1.76,10.29-.07,3.72,1.48,7.19,5,8,8.65C120.09,139.2,107.53,142.49,99.85,155.7Z"/><path class="cls-2" d="M424.85,135a97.74,97.74,0,0,1-52.35,23.11,48.06,48.06,0,0,1,6.6,10.62c18,39.95-26.13,92.32-31.84,98.92a114.88,114.88,0,0,0-7.61-23.08A120.58,120.58,0,0,0,304.35,200a137.76,137.76,0,0,0-14.25-9.91c-.73-.43-5.77-3.36-11.21-1.27s-9.22,8.52-7.74,14.11a11.56,11.56,0,0,0,4.92,6.47A117.79,117.79,0,0,1,297.19,225,104.28,104.28,0,0,1,321.68,259a102.83,102.83,0,0,1,7.82,26.89,205.07,205.07,0,0,1-46.76,34.33A95.33,95.33,0,0,0,275,300.72a94.06,94.06,0,0,0-13.65-19.36q-1.92-2.08-3.83-3.94a93.68,93.68,0,0,0-15.16-11.88A11.06,11.06,0,0,0,229,283.1a86.06,86.06,0,0,1,9.23,6.81,81.8,81.8,0,0,1,18.68,22.43,80.24,80.24,0,0,1,7.18,17.06c-3.75,1.67-9.17,4-15.83,6.37-8.36,3-18.4,6.65-30.94,8.63-15.16,2.39-26.18,4.14-33-2.15-3.67-3.39-5.78-8.33-5.81-18.35,0-6.78.26-13.19.71-19.14,1.93-25.55,7.16-42.49,7.16-42.49,6.34-23.75,19.83-60.36,49.78-93.73,0,0,26-29,58.08-41.67a91.63,91.63,0,0,1,9.85-3.27A53.71,53.71,0,0,1,320.53,122a45.29,45.29,0,0,1,8,1.37c.26-3.27.72-7.63,1.51-12.74.27-1.93.71-4.6,1.39-7.75,1.61-7.33,11.14-47,35.53-53.17,2.27-.57,10.94-2.73,17.78,2.26,5.18,3.8,6.64,9.76,7.09,12.11A22.95,22.95,0,0,1,421.7,96.17a22.83,22.83,0,0,1,10.7,11.26C436,116.28,433.08,127.3,424.85,135Z"/><rect class="cls-3" x="217.49" y="465.71" width="167.36" height="23.11" transform="translate(-176.1 778.44) rotate(-90)"/><path class="cls-3" d="M425.4,409.33l-.53-1.58a1.55,1.55,0,0,0-.08-.23c-.07-.19-.14-.38-.22-.56a21.76,21.76,0,0,0-39.92-.54,5.37,5.37,0,0,0-.29.65c-.1.22-.18.45-.26.68l-.58,1.78L333.6,561.33h23.86l15.08-48.65h63.67l15.07,48.65h24.09Zm-46.9,84.12,17.94-57.89.86-2.8c.77-2.16,1.47-4.43,2.09-6.83s1.23-4.59,1.85-6.6a3.27,3.27,0,0,1,6.49,0q.93,3,1.85,6.6c.61,2.4,1.23,4.67,1.86,6.83l.89,2.88,17.91,57.81Z"/><path class="cls-3" d="M98.32,409.33l-.53-1.58a1.55,1.55,0,0,0-.08-.23c-.07-.2-.15-.39-.23-.59s-.15-.34-.24-.51a21.75,21.75,0,0,0-39.65-.05l-.24.53c-.08.2-.17.41-.24.62a1.57,1.57,0,0,0-.09.23l-.51,1.58-50,152H30.38l15.08-48.65h63.67l15.07,48.65h24.09Zm-46.9,84.12,17.94-57.9.86-2.79c.77-2.16,1.48-4.43,2.09-6.83s1.23-4.59,1.85-6.6a3.27,3.27,0,0,1,6.49,0q.93,3,1.85,6.6c.62,2.4,1.24,4.67,1.86,6.83l.89,2.88,17.91,57.81Z"/><polygon class="cls-3" points="265.51 542.09 265.51 561.33 168.96 561.33 168.96 393.59 192.07 393.59 192.07 542.09 265.51 542.09"/></svg>