<?xml version="1.0" encoding="utf-8"?>
<!-- Generator: Adobe Illustrator 26.5.0, SVG Export Plug-In . SVG Version: 6.00 Build 0)  -->
<svg version="1.1" id="Capa_1" xmlns="http://www.w3.org/2000/svg" xmlns:xlink="http://www.w3.org/1999/xlink" x="0px" y="0px"
	 viewBox="0 0 546.6 572.26" style="enable-background:new 0 0 546.6 572.26;" xml:space="preserve">
<style type="text/css">
	.st0{fill:#005F9E;}
</style>
<path class="st0" d="M490.68,130.99L326.31,36.25c0,0-26.04-15.23-67.59-15.23c-43.26,0-68.33,15.69-68.33,15.69L38.13,123.84
	l231.63,133.13v269.05l152.44-87.04c0,0,27.25-15.04,47.95-50.78c18.24-31.47,20.52-61.92,20.52-61.92L490.68,130.99z M242.8,174.81
	c0,0,33.98-6.27,62.71,10.31s45.68,26.32,45.68,26.32s0.05,23.07,0.05,57.56c0,27.62-23.4,56.26-23.4,56.26l0.05-101.33
	L242.8,174.81z M377.51,397.07l-49.62,28.46v-26.69l38.62-22.1c36.76-26.51,42.85-65.59,42.85-79.15l-0.14-120.04l-105.33-60.62
	c0,0-16.01-10.49-44.8-10.49s-44.47,9.7-44.47,9.7l-37,21.26l-23.35-13.51l51.11-29.2c0,0,20.01-11.09,53.52-11.09
	c30.78,0,54.73,12.02,54.73,12.02l118.93,68.7l-0.14,131C433.26,315.46,423.88,364.66,377.51,397.07L377.51,397.07z"/>
<path class="st0" d="M26.44,210.97l162.38,93.16l-0.14,27.76L96.3,278.93l-58.12,33.05l150.4,86.67l0.09,26.74l-161.12-92.7
	c0.42,10.86,10.26,44.33,29.11,70.23c19.12,26.23,40.94,37.37,40.94,37.37l148.91,85.74V270.34L26.57,144.03L26.44,210.97z"/>
</svg>
